<svg width="44" height="40" viewBox="0 0 44 40" fill="none" xmlns="http://www.w3.org/2000/svg">
<path d="M9.76 39.6C8.69333 39.6 7.82667 39.2533 7.16 38.56C6.49333 37.8933 6.16 37.04 6.16 36V23.36C6.16 22.2933 5.61333 21.76 4.52 21.76H0.48V17.84H4.52C5.61333 17.84 6.16 17.3067 6.16 16.24V3.6C6.16 2.56 6.49333 1.70666 7.16 1.04C7.82667 0.346665 8.69333 -2.38419e-06 9.76 -2.38419e-06H16.28V3.52H11.2C10.48 3.52 10.12 3.92 10.12 4.72V16.28C10.12 17.2133 9.84 17.9867 9.28 18.6C8.74667 19.1867 8.01333 19.48 7.08 19.48H6.64V20.12H7.08C8.01333 20.12 8.74667 20.4267 9.28 21.04C9.84 21.6267 10.12 22.3867 10.12 23.32V34.88C10.12 35.68 10.48 36.08 11.2 36.08H16.28V39.6H9.76ZM27.8441 39.6V36.08H32.9241C33.6441 36.08 34.0041 35.68 34.0041 34.88V23.32C34.0041 22.3867 34.2707 21.6267 34.8041 21.04C35.3641 20.4267 36.1107 20.12 37.0441 20.12H37.5241V19.48H37.0441C36.1107 19.48 35.3641 19.1867 34.8041 18.6C34.2707 17.9867 34.0041 17.2133 34.0041 16.28V4.72C34.0041 3.92 33.6441 3.52 32.9241 3.52H27.8441V-2.38419e-06H34.3641C35.4307 -2.38419e-06 36.2974 0.346665 36.9641 1.04C37.6574 1.70666 38.0041 2.56 38.0041 3.6V16.24C38.0041 17.3067 38.5374 17.84 39.6041 17.84H43.6441V21.76H39.6041C38.5374 21.76 38.0041 22.2933 38.0041 23.36V36C38.0041 37.04 37.6574 37.8933 36.9641 38.56C36.2974 39.2533 35.4307 39.6 34.3641 39.6H27.8441Z" fill="#FDE047"/>
</svg>
