<svg width="601" height="515" viewBox="0 0 601 515" fill="none" xmlns="http://www.w3.org/2000/svg">
<mask id="mask0_231_382" style="mask-type:luminance" maskUnits="userSpaceOnUse" x="293" y="427" width="37" height="36">
<path d="M329.537 427H293.537V463H329.537V427Z" fill="white"/>
</mask>
<g mask="url(#mask0_231_382)">
<path d="M311.536 432.535L329.137 427.349L324.001 445L329.137 462.601L311.536 457.465L293.885 462.601L299.07 445L293.885 427.349L311.536 432.535Z" fill="black" stroke="white" stroke-miterlimit="10"/>
</g>
<mask id="mask1_231_382" style="mask-type:luminance" maskUnits="userSpaceOnUse" x="58" y="313" width="100" height="100">
<path d="M157.994 362.728L108.266 313L58.5377 362.728L108.266 412.456L157.994 362.728Z" fill="white"/>
</mask>
<g mask="url(#mask1_231_382)">
<path d="M125.484 345.509L156.96 362.659L125.484 379.947L108.266 411.354L91.0473 379.947L59.5713 362.659L91.0473 345.509L108.266 313.964L125.484 345.509Z" fill="black" stroke="white" stroke-miterlimit="10"/>
</g>
<path d="M565.117 389.333C563.218 392.777 559.679 395.268 554.584 396.813C549.486 398.359 542.874 398.943 534.913 398.6C518.992 397.913 497.791 393.524 472.776 385.868C422.756 370.558 357.594 342.216 289.155 304.465C220.715 266.715 161.982 226.717 122.349 192.575C102.53 175.501 87.5081 159.909 78.4345 146.81C73.8971 140.259 70.8637 134.355 69.4519 129.218C68.0407 124.084 68.2604 119.762 70.1599 116.319C72.0595 112.875 75.5978 110.384 80.6932 108.839C85.7909 107.293 92.403 106.709 100.364 107.052C116.285 107.739 137.486 112.128 162.501 119.784C212.521 135.094 277.683 163.436 346.122 201.187C414.562 238.937 473.295 278.934 512.928 313.077C532.747 330.15 547.769 345.742 556.843 358.842C561.38 365.393 564.414 371.297 565.825 376.434C567.237 381.568 567.017 385.889 565.117 389.333Z" stroke="black"/>
<path d="M544.887 426.007C542.987 429.451 539.449 431.942 534.354 433.487C529.256 435.033 522.644 435.617 514.683 435.273C498.762 434.587 477.56 430.198 452.546 422.542C402.526 407.232 337.364 378.89 268.924 341.139C200.485 303.388 141.752 263.391 102.119 229.249C82.2998 212.175 67.2777 196.583 58.2041 183.483C53.6667 176.933 50.6334 171.029 49.2215 165.892C47.8103 160.758 48.03 156.436 49.9296 152.992C51.8292 149.549 55.3675 147.057 60.4628 145.512C65.5606 143.967 72.1726 143.383 80.1339 143.726C96.0544 144.413 117.256 148.802 142.27 156.458C192.291 171.767 257.452 200.11 325.892 237.86C394.331 275.611 453.064 315.608 492.697 349.75C512.517 366.824 527.539 382.416 536.612 395.516C541.15 402.067 544.183 407.971 545.595 413.107C547.006 418.241 546.786 422.563 544.887 426.007Z" stroke="black"/>
<path d="M524.658 462.681C522.759 466.125 519.22 468.616 514.125 470.161C509.027 471.707 502.415 472.291 494.454 471.948C478.533 471.261 457.332 466.872 432.317 459.216C382.297 443.906 317.135 415.564 248.696 377.813C180.256 340.063 121.523 300.066 81.8908 265.923C62.0713 248.85 47.0491 233.258 37.9755 220.158C33.4381 213.607 30.4047 207.703 28.9929 202.566C27.5817 197.432 27.8014 193.111 29.701 189.667C31.6005 186.223 35.1388 183.732 40.2342 182.187C45.332 180.641 51.944 180.057 59.9053 180.4C75.8258 181.087 97.0275 185.476 122.042 193.132C172.062 208.442 237.224 236.784 305.663 274.535C374.103 312.285 432.836 352.283 472.469 386.425C492.288 403.499 507.31 419.091 516.384 432.19C520.921 438.741 523.955 444.645 525.366 449.782C526.778 454.916 526.558 459.237 524.658 462.681Z" stroke="black"/>
<path d="M132.037 120C140.598 120 147.537 113.06 147.537 104.5C147.537 95.9396 140.598 89 132.037 89C123.477 89 116.537 95.9396 116.537 104.5C116.537 113.06 123.477 120 132.037 120Z" fill="#FDE047"/>
<path d="M421.537 445C427.06 445 431.537 440.523 431.537 435C431.537 429.477 427.06 425 421.537 425C416.014 425 411.537 429.477 411.537 435C411.537 440.523 416.014 445 421.537 445Z" fill="#FDE047"/>
<path d="M82.0371 88C95.0158 88 105.537 77.4787 105.537 64.5C105.537 51.5213 95.0158 41 82.0371 41C69.0584 41 58.5371 51.5213 58.5371 64.5C58.5371 77.4787 69.0584 88 82.0371 88Z" fill="black"/>
<path d="M306.509 383.59C300.205 385.744 293.001 381.475 290.495 374.071L251.496 259.81L274.284 252.015L313.322 366.433C315.828 373.758 312.774 381.436 306.509 383.59Z" fill="black"/>
<path d="M303.102 385C301.262 385 299.383 384.569 297.581 383.668C293.94 381.866 291.042 378.498 289.633 374.345L250.634 260.084C250.478 259.653 250.713 259.144 251.182 258.987L273.971 251.192C274.206 251.113 274.441 251.113 274.636 251.231C274.832 251.348 274.989 251.505 275.067 251.74L314.105 366.159C316.728 373.914 313.439 382.101 306.744 384.412C305.608 384.804 304.355 385 303.102 385ZM252.592 260.358L291.317 373.797C292.57 377.518 295.154 380.574 298.364 382.14C300.949 383.394 303.729 383.629 306.235 382.767C312.03 380.769 314.849 373.562 312.5 366.707L273.736 253.111L252.592 260.358Z" fill="black"/>
<path d="M270.251 153.382L196.521 205.988L167.821 235.798L156.544 255.736L156.505 255.892C154.273 259.339 155.565 267.291 159.755 275.399C163.866 283.39 169.661 288.953 173.733 289.266L173.616 289.344L195.268 291.695L235.794 285.231L321.818 254.443L428.751 272.775L429.495 272.814C402.635 267.8 366.377 231.88 340.025 181.076C313.713 130.31 305.334 80.132 316.885 55.376H316.845L270.838 152.128L270.251 153.382Z" fill="#FDE047"/>
<path d="M447.266 270.603C473.694 256.873 468.583 194.629 435.852 131.577C403.121 68.5247 355.163 28.5412 328.736 42.2711C302.308 56.001 307.419 118.245 340.15 181.297C372.881 244.349 420.839 284.333 447.266 270.603Z" fill="white"/>
<path d="M435.643 274.185C424.131 274.185 410.27 267.761 395.352 255.266C375.031 238.266 355.101 212.06 339.243 181.428C315.241 135.05 305.334 87.4964 314.027 60.2726C316.924 51.1849 321.78 44.8392 328.397 41.4313C341.553 34.6939 360.073 40.4129 380.591 57.5698C400.912 74.57 420.842 100.775 436.7 131.407C460.742 177.786 470.648 225.339 461.916 252.563C459.019 261.651 454.163 267.996 447.546 271.404C443.983 273.284 439.989 274.185 435.643 274.185ZM340.378 40.4129C336.345 40.4129 332.586 41.2355 329.219 42.9982C322.993 46.171 318.451 52.2033 315.711 60.8601C307.136 87.6922 317.003 134.737 340.809 180.723C373.23 243.279 420.764 283.312 446.802 269.955C453.028 266.782 457.57 260.75 460.311 252.093C468.886 225.261 459.019 178.216 435.212 132.23C406.981 77.782 367.356 40.4129 340.378 40.4129Z" fill="black"/>
<path d="M435.643 274.185C424.131 274.185 410.27 267.761 395.352 255.266C375.031 238.265 355.101 212.06 339.243 181.428C315.241 135.05 305.334 87.4963 314.027 60.2725C316.924 51.1848 321.78 44.8391 328.397 41.4312C337.207 36.8874 348.718 38.0234 361.679 44.6824C374.091 51.0673 387.521 62.3877 400.599 77.3902C400.912 77.7427 400.873 78.2911 400.521 78.6045C400.168 78.9179 399.62 78.8787 399.307 78.5262C372.76 48.0511 345.899 34.4196 329.219 42.9981C322.993 46.1709 318.451 52.2033 315.711 60.86C307.136 87.6922 317.003 134.737 340.809 180.723C369.001 235.132 408.665 272.54 435.604 272.54C439.637 272.54 443.396 271.717 446.763 269.955C452.989 266.782 457.531 260.75 460.272 252.093C468.847 225.261 458.98 178.216 435.173 132.23C428.086 118.52 420.098 105.632 411.523 93.9204C411.249 93.5286 411.328 92.9803 411.719 92.7061C412.111 92.4319 412.659 92.5102 412.933 92.9019C421.586 104.692 429.574 117.658 436.739 131.446C460.742 177.785 470.648 225.339 461.916 252.563C459.019 261.65 454.163 267.996 447.546 271.404C443.983 273.284 439.989 274.185 435.643 274.185Z" fill="black"/>
<path d="M387.303 190.339C393.426 187.158 392.248 172.751 384.673 158.159C377.098 143.567 365.995 134.316 359.872 137.497C353.75 140.678 354.928 155.085 362.503 169.677C370.077 184.269 381.181 193.52 387.303 190.339Z" fill="#FDE047"/>
<path d="M384.624 191.848C377.889 191.848 368.492 183.152 361.718 170.03C356.08 159.14 353.77 147.937 355.845 141.474C356.589 139.202 357.803 137.596 359.486 136.734C366.143 133.326 377.537 142.61 385.446 157.847C391.085 168.737 393.395 179.94 391.32 186.403C390.576 188.675 389.362 190.281 387.678 191.143C386.738 191.613 385.72 191.848 384.624 191.848ZM362.54 137.714C361.718 137.714 360.935 137.87 360.269 138.223C358.977 138.889 358.038 140.142 357.45 141.983C355.532 148.016 357.764 158.748 363.206 169.246C370.411 183.152 381.257 192.514 386.856 189.615C388.148 188.949 389.088 187.696 389.675 185.855C391.594 179.783 389.323 169.09 383.919 158.592C377.576 146.41 368.492 137.714 362.54 137.714Z" fill="#FDE047"/>
<path d="M429.692 259.574C419.59 259.574 407.452 253.934 394.374 243.005C376.597 228.12 359.134 205.166 345.273 178.373C324.247 137.792 315.593 96.153 323.19 72.2978C325.735 64.307 330.003 58.7447 335.837 55.7285C349.228 48.8736 368.923 56.7861 389.91 77.4292C390.262 77.7818 390.262 78.291 389.91 78.6435C389.558 78.9961 389.049 78.9961 388.696 78.6435C368.257 58.5488 349.267 50.7146 336.62 57.2562C331.216 60.0373 327.262 65.2471 324.834 72.8071C317.355 96.2313 325.97 137.361 346.8 177.589C371.429 225.182 406.081 257.851 429.653 257.851C433.177 257.851 436.426 257.107 439.402 255.618C444.806 252.837 448.76 247.627 451.188 240.067C458.667 216.643 450.052 175.513 429.222 135.285C422.918 123.142 415.87 111.743 408.274 101.441C408 101.049 408.078 100.501 408.47 100.227C408.861 99.9526 409.409 100.031 409.683 100.423C417.358 110.842 424.445 122.28 430.788 134.501C451.814 175.082 460.468 216.721 452.872 240.576C450.327 248.567 446.059 254.13 440.225 257.146C437.014 258.752 433.49 259.574 429.692 259.574Z" fill="black"/>
<path d="M195.308 292.517C195.269 292.517 195.23 292.517 195.23 292.517L173.577 290.167C173.46 290.167 173.342 290.128 173.225 290.05C168.761 289.344 163.123 283.704 159.011 275.791C154.626 267.448 153.334 259.3 155.722 255.462L155.762 255.344L167.038 235.367C167.077 235.289 167.117 235.249 167.156 235.21L195.857 205.401C195.896 205.362 195.935 205.323 195.974 205.284L269.508 152.794L316.024 54.9845C316.141 54.7886 316.298 54.632 316.533 54.5536C316.768 54.4753 317.003 54.4753 317.199 54.5928C317.629 54.7886 317.825 55.2979 317.629 55.7288C305.844 80.994 315.163 131.211 340.77 180.645C366.417 230.157 402.165 266.821 429.692 271.874C430.122 271.953 430.436 272.344 430.396 272.814C430.357 273.245 429.966 273.559 429.535 273.598L428.791 273.559C428.752 273.559 428.713 273.559 428.674 273.559L321.936 255.266L236.108 285.976C236.069 285.976 235.991 286.015 235.951 286.015L195.426 292.478C195.387 292.517 195.348 292.517 195.308 292.517ZM174.204 288.522L195.308 290.794L235.638 284.331L321.623 253.581C321.78 253.542 321.897 253.503 322.054 253.542L418.141 269.994C392.181 258.595 361.836 224.947 339.321 181.468C316.964 138.301 306.979 94.4689 312.461 66.775L271.035 153.735C270.956 153.852 270.878 153.97 270.761 154.048L197.11 206.655L168.526 236.307L157.249 256.284C157.249 256.323 157.21 256.363 157.21 256.363C155.174 259.535 156.545 267.37 160.499 275.008C164.376 282.49 169.975 288.13 173.812 288.404C173.969 288.404 174.086 288.444 174.204 288.522Z" fill="black"/>
<path d="M270.367 153.069L316.845 55.3369H316.884C305.333 80.093 313.751 130.271 340.025 181.037C366.376 231.881 402.634 267.8 429.573 272.736L428.829 272.697L322.052 254.404L319.586 253.973C307.173 251.779 290.611 235.641 278.747 212.608C266.569 188.988 264.416 165.447 269.819 154.244L270.367 153.069Z" fill="white"/>
<path d="M429.573 273.598L428.79 273.558C428.751 273.558 428.711 273.558 428.672 273.558L321.896 255.266L319.429 254.835C306.312 252.524 289.671 235.719 277.964 213.039C264.69 187.265 264.025 164.311 269.036 153.891L269.624 152.716L316.101 55.0236C316.218 54.8277 316.375 54.671 316.61 54.5927C316.845 54.5143 317.08 54.5143 317.276 54.6319C317.706 54.8277 317.902 55.3369 317.706 55.7678C305.921 81.0331 315.24 131.25 340.847 180.684C366.494 230.196 402.243 266.86 429.769 271.913C430.199 271.992 430.513 272.383 430.473 272.853C430.356 273.245 430.004 273.598 429.573 273.598ZM312.381 66.7749L271.151 153.46L270.563 154.635C265.591 164.977 267.04 188.087 279.491 212.217C290.963 234.466 307.134 250.918 319.742 253.111L322.209 253.542L418.1 269.994C392.14 258.595 361.795 224.947 339.281 181.467C316.923 138.301 306.939 94.4687 312.381 66.7749Z" fill="black"/>
<path d="M194.133 292.4C194.094 292.4 194.055 292.4 194.055 292.4L173.538 290.206C173.42 290.206 173.303 290.167 173.185 290.089C168.721 289.384 163.083 283.743 158.972 275.831C154.626 267.448 153.333 259.3 155.722 255.462L155.761 255.344L167.038 235.367C167.273 234.936 167.782 234.819 168.212 235.054C168.643 235.289 168.761 235.798 168.526 236.229L157.249 256.284C157.249 256.323 157.21 256.363 157.21 256.363C155.174 259.535 156.544 267.37 160.499 275.008C164.375 282.49 169.974 288.13 173.812 288.404C173.929 288.404 174.086 288.444 174.164 288.522L194.212 290.676C194.681 290.716 195.034 291.146 194.955 291.616C194.916 292.047 194.564 292.4 194.133 292.4Z" fill="black"/>
<path d="M195.503 291.538C188.847 291.068 179.528 281.628 172.754 268.584C165.589 254.756 163.905 240.459 168.29 235.367L156.583 255.736L156.505 255.892C154.273 259.339 155.565 267.291 159.755 275.399C163.866 283.39 169.661 288.953 173.733 289.266L173.616 289.344L195.503 291.538Z" fill="white"/>
<path d="M195.504 292.4C195.464 292.4 195.464 292.4 195.425 292.4C195.269 292.4 195.073 292.36 194.916 292.36L173.538 290.206C173.42 290.206 173.303 290.167 173.185 290.088C168.721 289.383 163.083 283.743 158.972 275.83C154.626 267.448 153.333 259.3 155.722 255.461L155.761 255.344L166.059 237.404C166.45 236.385 166.959 235.484 167.586 234.74C167.86 234.387 168.369 234.348 168.721 234.583C169.074 234.857 169.191 235.327 168.956 235.719L167.508 238.187C165.197 244.415 167.468 256.636 173.42 268.074C179.881 280.57 188.691 289.697 194.995 290.519L195.464 290.559C195.934 290.598 196.287 291.029 196.248 291.499C196.287 292.047 195.934 292.4 195.504 292.4ZM174.164 288.522L189.121 290.049C183.366 286.367 177.022 278.768 171.971 268.975C167.077 259.535 164.649 249.742 165.041 242.692L157.249 256.284C157.249 256.323 157.21 256.362 157.21 256.362C155.174 259.535 156.544 267.369 160.499 275.008C164.375 282.489 169.974 288.13 173.812 288.404C173.929 288.404 174.086 288.443 174.164 288.522Z" fill="black"/>
<path d="M234.345 285.388L236.068 285.035C226.749 286.994 212.026 272.892 201.65 252.876C191.039 232.429 189.042 212.021 196.56 205.988L195.581 206.968L168.368 235.249C163.905 240.263 165.549 254.639 172.754 268.544C179.684 281.941 189.512 291.499 196.208 291.459L234.345 285.388Z" fill="black"/>
<path d="M196.169 292.36C189.043 292.36 179.137 282.764 171.971 268.975C164.689 254.874 162.848 240.146 167.704 234.701L194.407 206.968C194.877 206.341 195.425 205.793 196.013 205.323C196.365 205.048 196.874 205.088 197.187 205.401C197.501 205.753 197.501 206.263 197.187 206.576L195.66 208.182C190.218 215.468 192.92 234.113 202.434 252.484C212.693 272.305 227.024 285.897 235.795 284.252L235.912 284.213C236.382 284.135 236.813 284.409 236.93 284.879C237.008 285.349 236.734 285.78 236.264 285.897C236.225 285.897 236.186 285.897 236.147 285.936L234.542 286.25H234.502L196.365 292.321C196.287 292.321 196.209 292.36 196.169 292.36ZM192.136 211.825L168.996 235.876C164.689 240.733 166.646 254.913 173.538 268.192C180.272 281.197 189.787 290.598 196.169 290.637L229.843 285.27C220.759 282.058 209.561 269.955 200.907 253.307C192.685 237.443 189.513 221.304 192.136 211.825Z" fill="black"/>
<path d="M359.878 137.479C353.731 140.612 354.631 155.145 362.462 169.638C375.579 193.885 386.034 191.025 387.248 190.594C387.287 190.594 387.287 190.634 387.248 190.634L364.733 208.77C358.116 199.486 351.812 189.145 346.017 177.981C340.496 167.288 335.837 156.633 332.156 146.292L359.878 137.479Z" fill="black"/>
<path d="M364.733 209.631C364.694 209.631 364.655 209.631 364.616 209.631C364.381 209.592 364.185 209.475 364.028 209.279C357.255 199.76 350.951 189.341 345.273 178.412C339.83 167.914 335.132 157.221 331.373 146.645C331.295 146.41 331.295 146.174 331.412 145.979C331.53 145.783 331.686 145.626 331.921 145.548L359.643 136.734C360.074 136.617 360.544 136.813 360.7 137.243C360.857 137.674 360.7 138.144 360.309 138.34C358.977 139.006 357.998 140.338 357.411 142.297C355.493 148.446 357.842 159.336 363.284 169.325C376.088 192.984 385.955 190.281 387.013 189.889C387.404 189.733 387.874 189.928 388.07 190.281C388.266 190.634 388.187 191.143 387.874 191.417L365.281 209.436C365.125 209.553 364.929 209.631 364.733 209.631ZM333.292 146.84C337.011 157.064 341.553 167.405 346.8 177.59C352.282 188.166 358.39 198.233 364.929 207.516L384.467 191.77C380.004 191.574 371.585 188.244 361.718 170.03C356.002 159.493 353.652 148.368 355.727 141.67C356.002 140.808 356.315 140.064 356.706 139.359L333.292 146.84Z" fill="black"/>
<path d="M475.723 81.5974C493.623 72.1937 500.547 50.1159 491.187 32.2852C481.827 14.4545 459.729 7.62313 441.829 17.0268C423.929 26.4305 417.006 48.5083 426.365 66.339C435.725 84.1697 457.823 91.0011 475.723 81.5974Z" fill="black"/>
<path d="M577.272 83.5925C590.377 70.4829 590.377 49.2281 577.272 36.1185C564.168 23.0089 542.922 23.0089 529.817 36.1185C516.713 49.228 516.713 70.4829 529.817 83.5925C542.922 96.7021 564.168 96.7021 577.272 83.5925Z" fill="#FDE047"/>
<path d="M553.539 94.2732C534.587 94.2732 519.121 78.8399 519.121 59.8419C519.121 40.8832 534.548 25.4106 553.539 25.4106C572.529 25.4106 587.956 40.844 587.956 59.8419C587.956 78.8007 572.529 94.2732 553.539 94.2732ZM553.539 27.1342C535.527 27.1342 520.844 41.7841 520.844 59.8419C520.844 77.8606 535.488 92.5497 553.539 92.5497C571.55 92.5497 586.233 77.8998 586.233 59.8419C586.233 41.8233 571.589 27.1342 553.539 27.1342Z" fill="#FDE047"/>
<path d="M563.067 189.993C578.433 179.322 582.294 158.283 571.69 142.999C561.085 127.715 540.032 123.975 524.665 134.645C509.299 145.315 505.438 166.355 516.042 181.639C526.647 196.923 547.7 200.663 563.067 189.993Z" fill="black"/>
<path d="M535.411 178.373L530.478 151.619C530.243 150.248 531.496 149.112 532.827 149.465L561.998 157.73C563.486 158.161 563.838 160.08 562.624 161.02L538.348 179.509C537.291 180.371 535.685 179.783 535.411 178.373Z" fill="white"/>
<path d="M543.535 299.582C562.512 290.34 570.452 267.553 561.271 248.686C552.09 229.819 529.264 222.016 510.287 231.258C491.311 240.499 483.371 263.286 492.552 282.153C501.733 301.02 524.559 308.823 543.535 299.582Z" fill="#FDE047"/>
<path d="M526.718 304.347C522.646 304.347 518.495 303.72 514.462 302.349C504.595 299.059 496.607 292.165 491.987 282.842C487.367 273.559 486.662 263.022 489.99 253.151C496.881 232.821 519.043 221.735 539.443 228.512C549.31 231.802 557.298 238.696 561.918 248.019C566.539 257.303 567.243 267.84 563.915 277.711C558.355 294.006 543.045 304.347 526.718 304.347ZM527.109 228.277C511.486 228.277 496.842 238.148 491.556 253.738C488.385 263.178 489.05 273.245 493.475 282.098C497.899 290.99 505.535 297.61 514.971 300.743C534.47 307.206 555.653 296.63 562.232 277.202C565.403 267.761 564.737 257.694 560.313 248.842C555.888 239.95 548.253 233.33 538.817 230.196C534.94 228.865 530.986 228.277 527.109 228.277Z" fill="black"/>
<path d="M533.13 264.827C536.632 261.324 536.632 255.644 533.13 252.141C529.628 248.638 523.951 248.638 520.45 252.141C516.948 255.644 516.948 261.324 520.45 264.827C523.951 268.33 529.628 268.33 533.13 264.827Z" fill="#FDE047"/>
<g clip-path="url(#clip0_231_382)">
<path d="M462.64 38.06C461.79 37.815 460.905 38.31 460.66 39.16L454.26 61.56C454.015 62.41 454.51 63.295 455.36 63.54C456.21 63.785 457.095 63.29 457.34 62.44L463.74 40.04C463.985 39.19 463.49 38.305 462.64 38.06ZM466.67 44.065C466.045 44.69 466.045 45.705 466.67 46.33L471.135 50.8L466.665 55.27C466.04 55.895 466.04 56.91 466.665 57.535C467.29 58.16 468.305 58.16 468.93 57.535L474.53 51.935C475.155 51.31 475.155 50.295 474.53 49.67L468.93 44.07C468.305 43.445 467.29 43.445 466.665 44.07L466.67 44.065ZM451.335 44.065C450.71 43.44 449.695 43.44 449.07 44.065L443.47 49.665C442.845 50.29 442.845 51.305 443.47 51.93L449.07 57.53C449.695 58.155 450.71 58.155 451.335 57.53C451.96 56.905 451.96 55.89 451.335 55.265L446.865 50.8L451.335 46.33C451.96 45.705 451.96 44.69 451.335 44.065Z" fill="white"/>
</g>
<path d="M565 38L562.48 43.5L557 46L562.48 48.52L565 54L567.5 48.52L573 46L567.5 43.5M545 44L540 55L529 60L540 65L545 76L550 65L561 60L550 55M565 66L562.48 71.48L557 74L562.48 76.5L565 82L567.5 76.5L573 74L567.5 71.48" fill="black"/>
<path d="M506 264C506.813 264 507.586 263.844 508.32 263.531C509.055 263.219 509.688 262.789 510.219 262.242C510.75 261.695 511.18 261.062 511.508 260.344C511.836 259.625 512 258.844 512 258C512 256.891 511.977 255.781 511.93 254.672C511.883 253.563 511.914 252.484 512.023 251.438C512.133 250.391 512.383 249.367 512.773 248.367C513.164 247.367 513.781 246.453 514.625 245.625C515.469 244.781 516.445 244.133 517.555 243.68C518.664 243.227 519.812 243 521 243V246C520.172 246 519.398 246.156 518.68 246.469C517.961 246.781 517.328 247.211 516.781 247.758C516.234 248.305 515.805 248.945 515.492 249.68C515.18 250.414 515.016 251.187 515 252C515 252.875 515.016 253.734 515.047 254.578C515.078 255.422 515.086 256.258 515.07 257.086C515.055 257.914 514.977 258.711 514.836 259.477C514.695 260.242 514.484 260.984 514.203 261.703C513.922 262.422 513.516 263.094 512.984 263.719C512.453 264.344 511.789 264.938 510.992 265.5C511.805 266.047 512.469 266.641 512.984 267.281C513.5 267.922 513.906 268.594 514.203 269.297C514.5 270 514.711 270.734 514.836 271.5C514.961 272.266 515.031 273.063 515.047 273.891C515.063 274.719 515.063 275.555 515.047 276.398C515.031 277.242 515.016 278.109 515 279C515 279.828 515.156 280.602 515.469 281.32C515.781 282.039 516.211 282.672 516.758 283.219C517.305 283.766 517.938 284.195 518.656 284.508C519.375 284.82 520.156 284.984 521 285V288C519.812 288 518.664 287.773 517.555 287.32C516.445 286.867 515.469 286.219 514.625 285.375C513.781 284.531 513.172 283.617 512.797 282.633C512.422 281.648 512.172 280.633 512.047 279.586C511.922 278.539 511.883 277.453 511.93 276.328C511.977 275.203 512 274.094 512 273C512 272.187 511.844 271.414 511.531 270.68C511.219 269.945 510.789 269.312 510.242 268.781C509.695 268.25 509.055 267.82 508.32 267.492C507.586 267.164 506.813 267 506 267V264ZM533 243C534.188 243 535.336 243.227 536.445 243.68C537.555 244.133 538.531 244.781 539.375 245.625C540.219 246.469 540.828 247.383 541.203 248.367C541.578 249.352 541.828 250.367 541.953 251.414C542.078 252.461 542.117 253.547 542.07 254.672C542.023 255.797 542 256.906 542 258C542 258.828 542.156 259.602 542.469 260.32C542.781 261.039 543.211 261.672 543.758 262.219C544.305 262.766 544.938 263.195 545.656 263.508C546.375 263.82 547.156 263.984 548 264V267C547.172 267 546.398 267.156 545.68 267.469C544.961 267.781 544.328 268.211 543.781 268.758C543.234 269.305 542.805 269.945 542.492 270.68C542.18 271.414 542.016 272.187 542 273C542 274.109 542.023 275.219 542.07 276.328C542.117 277.437 542.086 278.516 541.977 279.562C541.867 280.609 541.617 281.633 541.227 282.633C540.836 283.633 540.219 284.547 539.375 285.375C538.531 286.219 537.555 286.867 536.445 287.32C535.336 287.773 534.188 288 533 288V285C533.813 285 534.586 284.844 535.32 284.531C536.055 284.219 536.688 283.789 537.219 283.242C537.75 282.695 538.18 282.062 538.508 281.344C538.836 280.625 539 279.844 539 279C539 278.125 538.984 277.266 538.953 276.422C538.922 275.578 538.914 274.742 538.93 273.914C538.945 273.086 539.023 272.289 539.164 271.523C539.305 270.758 539.516 270.016 539.797 269.297C540.078 268.578 540.484 267.906 541.016 267.281C541.547 266.656 542.211 266.062 543.008 265.5C542.195 264.953 541.531 264.359 541.016 263.719C540.5 263.078 540.094 262.406 539.797 261.703C539.5 261 539.289 260.266 539.164 259.5C539.039 258.734 538.969 257.937 538.953 257.109C538.937 256.281 538.937 255.445 538.953 254.602C538.969 253.758 538.984 252.891 539 252C539 251.187 538.844 250.414 538.531 249.68C538.219 248.945 537.789 248.312 537.242 247.781C536.695 247.25 536.055 246.82 535.32 246.492C534.586 246.164 533.813 246 533 246V243Z" fill="black"/>
<defs>
<clipPath id="clip0_231_382">
<rect width="32" height="25.6" fill="white" transform="translate(443 38)"/>
</clipPath>
</defs>
</svg>
