<svg width="30" height="30" viewBox="0 0 30 30" fill="none" xmlns="http://www.w3.org/2000/svg">
<g clip-path="url(#clip0_216_351)">
<circle cx="15" cy="15" r="15" fill="white"/>
<path d="M22.5066 8.33928C21.1512 7.70545 19.7173 7.25506 18.2429 7C18.0416 7.36838 17.8591 7.74674 17.6962 8.13363C16.13 7.89532 14.5367 7.89532 12.9705 8.13363C12.8059 7.74699 12.6217 7.36897 12.4187 7.00103C10.9223 7.25938 9.49003 7.71614 8.15179 8.34444C5.4536 12.4222 4.72196 16.3987 5.08778 20.3183C6.66259 21.5074 8.43184 22.414 10.3167 22.9979C10.7391 22.4185 11.1125 21.8037 11.4369 21.1533C10.825 20.9202 10.2351 20.6332 9.67398 20.2956C9.82209 20.1854 9.96608 20.0714 10.1059 19.9536C13.5058 21.544 17.2012 21.544 20.5618 19.9536C20.7037 20.0714 20.8477 20.185 20.9937 20.2946C20.4317 20.6339 19.8403 20.922 19.2266 21.1554C19.55 21.7993 19.9246 22.4162 20.3468 23C22.2333 22.4159 24.004 21.5085 25.5799 20.3183C26.0088 15.7735 24.8462 11.8342 22.5077 8.34134M11.8999 17.9064C10.8789 17.9064 10.0419 16.9536 10.0419 15.7931C10.0419 14.6326 10.8603 13.6778 11.8999 13.6778C12.9385 13.6778 13.7755 14.6306 13.7579 15.7931C13.759 16.9536 12.9385 17.9064 11.8999 17.9064ZM18.7658 17.9064C17.7448 17.9064 16.9077 16.9536 16.9077 15.7931C16.9077 14.6326 17.7272 13.6778 18.7658 13.6778C19.8053 13.6778 20.6424 14.6306 20.6238 15.7931C20.6238 16.9536 19.8043 17.9064 18.7658 17.9064Z" fill="black"/>
</g>
<defs>
<clipPath id="clip0_216_351">
<rect width="30" height="30" fill="white"/>
</clipPath>
</defs>
</svg>
