<svg width="30" height="30" viewBox="0 0 30 30" fill="none" xmlns="http://www.w3.org/2000/svg">
<g clip-path="url(#clip0_216_346)">
<circle cx="15" cy="15" r="15" fill="black"/>
<path d="M15.0005 3.84318e-09C11.4386 -8.16009e-05 7.99293 1.29941 5.28006 3.66593C2.56719 6.03246 0.764183 9.31156 0.193686 12.9164C-0.376811 16.5213 0.322437 20.2167 2.1663 23.3414C4.01016 26.466 6.8783 28.8159 10.2575 29.9706C11.0075 30.1059 11.288 29.6445 11.288 29.24C11.288 28.8755 11.27 27.6636 11.27 26.3763C7.50043 27.0869 6.52543 25.4336 6.22542 24.5692C5.89242 23.7277 5.36474 22.9818 4.68791 22.396C4.1629 22.1084 3.4129 21.3964 4.66841 21.3779C5.14827 21.431 5.60855 21.602 6.01018 21.8765C6.41181 22.1509 6.74293 22.5207 6.97543 22.9543C7.18053 23.3322 7.45633 23.6648 7.78703 23.9332C8.11774 24.2015 8.49684 24.4004 8.90262 24.5182C9.3084 24.6361 9.73287 24.6707 10.1517 24.6201C10.5706 24.5694 10.9756 24.4346 11.3435 24.2232C11.4079 23.4408 11.7481 22.7092 12.3005 22.1653C8.96295 21.7809 5.47542 20.4551 5.47542 14.5723C5.45538 13.0438 6.00534 11.5651 7.01293 10.4383C6.5553 9.10964 6.60895 7.6521 7.16293 6.36262C7.16293 6.36262 8.41844 5.95967 11.288 7.93905C13.7424 7.24711 16.3336 7.24711 18.788 7.93905C21.6561 5.93967 22.9131 6.36262 22.9131 6.36262C23.467 7.6521 23.5207 9.10964 23.0631 10.4383C24.0746 11.5625 24.6252 13.0429 24.6006 14.5723C24.6006 20.4736 21.0936 21.7809 17.7575 22.1653C18.1151 22.5376 18.3904 22.9843 18.5648 23.4752C18.7393 23.9661 18.8087 24.4898 18.7685 25.0106C18.7685 27.0684 18.7505 28.7218 18.7505 29.24C18.7505 29.6445 19.031 30.1244 19.781 29.9706C23.154 28.8062 26.0136 26.4507 27.8494 23.3246C29.6851 20.1985 30.3776 16.5051 29.8032 12.9039C29.2288 9.30271 27.4248 6.028 24.7134 3.66436C22.0019 1.30071 18.5595 0.00198409 15.0005 3.84318e-09Z" fill="white"/>
</g>
<defs>
<clipPath id="clip0_216_346">
<rect width="30" height="30" fill="white"/>
</clipPath>
</defs>
</svg>
