<svg width="41" height="41" viewBox="0 0 41 41" fill="none" xmlns="http://www.w3.org/2000/svg">
<g clip-path="url(#clip0_234_604)">
<path d="M20.5 41C31.8218 41 41 31.8218 41 20.5C41 9.17816 31.8218 0 20.5 0C9.17816 0 0 9.17816 0 20.5C0 31.8218 9.17816 41 20.5 41Z" fill="#191A23"/>
<path d="M11.2503 24.7009C10.5328 25.1151 10.287 26.0325 10.7012 26.75C11.1154 27.4674 12.0328 27.7132 12.7503 27.299L11.2503 24.7009ZM30.7696 16.3882C30.9841 15.588 30.5092 14.7655 29.709 14.5511L16.669 11.057C15.8688 10.8426 15.0463 11.3175 14.8319 12.1177C14.6175 12.9179 15.0923 13.7404 15.8925 13.9548L27.4836 17.0606L24.3778 28.6517C24.1634 29.4519 24.6383 30.2744 25.4385 30.4888C26.2387 30.7033 27.0612 30.2284 27.2756 29.4282L30.7696 16.3882ZM12.7503 27.299L30.0708 17.299L28.5708 14.7009L11.2503 24.7009L12.7503 27.299Z" fill="#FDE047"/>
</g>
<defs>
<clipPath id="clip0_234_604">
<rect width="41" height="41" fill="white"/>
</clipPath>
</defs>
</svg>
