<svg width="21" height="20" viewBox="0 0 21 20" fill="none" xmlns="http://www.w3.org/2000/svg">
<g clip-path="url(#clip0_234_601)">
<path d="M1.25025 13.701C0.532812 14.1152 0.286999 15.0326 0.701213 15.75C1.11543 16.4674 2.03281 16.7133 2.75025 16.299L1.25025 13.701ZM20.7696 5.38827C20.984 4.58807 20.5092 3.76556 19.709 3.55115L6.66899 0.0570987C5.86879 -0.157314 5.04628 0.317559 4.83187 1.11775C4.61746 1.91795 5.09233 2.74046 5.89253 2.95487L17.4837 6.0607L14.3779 17.6518C14.1634 18.452 14.6383 19.2745 15.4385 19.4889C16.2387 19.7033 17.0611 19.2284 17.2755 18.4282L20.7696 5.38827ZM2.75025 16.299L20.0707 6.29908L18.5707 3.701L1.25025 13.701L2.75025 16.299Z" fill="#FDE047"/>
</g>
<defs>
<clipPath id="clip0_234_601">
<rect width="21" height="20" fill="white"/>
</clipPath>
</defs>
</svg>
