<svg width="100" height="32" viewBox="0 0 100 32" fill="none" xmlns="http://www.w3.org/2000/svg">
<path d="M35.564 15.154C34.992 15.154 34.486 15.0367 34.046 14.802C33.6133 14.56 33.2723 14.208 33.023 13.746C32.781 13.284 32.66 12.712 32.66 12.03V10.27C32.66 9.25067 32.9313 8.477 33.474 7.949C34.0167 7.41367 34.7463 7.146 35.663 7.146C36.5723 7.146 37.2653 7.39533 37.742 7.894C38.2187 8.39267 38.457 9.06 38.457 9.896V9.951H37.544V9.874C37.544 9.50733 37.478 9.181 37.346 8.895C37.214 8.609 37.0087 8.38533 36.73 8.224C36.4513 8.05533 36.0957 7.971 35.663 7.971C35.0103 7.971 34.5007 8.17267 34.134 8.576C33.7673 8.972 33.584 9.52933 33.584 10.248V12.052C33.584 12.7707 33.7673 13.3317 34.134 13.735C34.5007 14.131 35.014 14.329 35.674 14.329C36.3193 14.329 36.7923 14.1457 37.093 13.779C37.401 13.4123 37.555 12.9247 37.555 12.316V12.129H35.223V11.337H38.457V15H37.621V14.164H37.467C37.3863 14.3253 37.2727 14.483 37.126 14.637C36.9793 14.791 36.7813 14.9157 36.532 15.011C36.2827 15.1063 35.96 15.154 35.564 15.154ZM42.1547 15.154C41.3994 15.154 40.8017 14.9413 40.3617 14.516C39.9291 14.0907 39.7127 13.482 39.7127 12.69V12.096H40.6257V12.69C40.6257 13.1667 40.7504 13.5553 40.9997 13.856C41.2564 14.1567 41.6377 14.307 42.1437 14.307C42.6571 14.307 43.0201 14.1603 43.2327 13.867C43.4454 13.5663 43.5517 13.174 43.5517 12.69V8.136H42.1987V7.3H45.3117V8.136H44.4757V12.69C44.4757 13.4893 44.2777 14.1017 43.8817 14.527C43.4857 14.945 42.9101 15.154 42.1547 15.154ZM49.456 15.154C48.884 15.154 48.3853 15.0513 47.96 14.846C47.5346 14.6407 47.2046 14.3363 46.97 13.933C46.7353 13.5223 46.618 13.02 46.618 12.426V7.3H47.531V12.437C47.531 13.0677 47.6996 13.5407 48.037 13.856C48.3743 14.1713 48.8473 14.329 49.456 14.329C50.0646 14.329 50.5376 14.1713 50.875 13.856C51.2123 13.5407 51.381 13.0677 51.381 12.437V7.3H52.305V12.426C52.305 13.02 52.1876 13.5223 51.953 13.933C51.7183 14.3363 51.3846 14.6407 50.952 14.846C50.5266 15.0513 50.028 15.154 49.456 15.154ZM56.8243 15V7.3H57.7483V15H56.8243ZM61.4019 15V8.136H58.9269V7.3H64.8009V8.136H62.3259V15H61.4019ZM35.663 29.154C34.7463 29.154 34.0167 28.89 33.474 28.362C32.9313 27.8267 32.66 27.0493 32.66 26.03V24.27C32.66 23.2507 32.9313 22.477 33.474 21.949C34.0167 21.4137 34.7463 21.146 35.663 21.146C36.5723 21.146 37.269 21.399 37.753 21.905C38.2443 22.411 38.49 23.104 38.49 23.984V24.039H37.577V23.951C37.577 23.3717 37.4193 22.8987 37.104 22.532C36.796 22.158 36.3157 21.971 35.663 21.971C35.0103 21.971 34.5007 22.1727 34.134 22.576C33.7673 22.972 33.584 23.5293 33.584 24.248V26.052C33.584 26.7707 33.7673 27.3317 34.134 27.735C34.5007 28.131 35.0103 28.329 35.663 28.329C36.3157 28.329 36.796 28.1457 37.104 27.779C37.4193 27.405 37.577 26.9283 37.577 26.349V26.173H38.49V26.316C38.49 27.196 38.2443 27.889 37.753 28.395C37.269 28.901 36.5723 29.154 35.663 29.154ZM39.9706 29V21.3H40.8396V29H39.9706ZM44.7239 29.099C44.3352 29.099 43.9759 29.0147 43.6459 28.846C43.3232 28.6773 43.0666 28.428 42.8759 28.098C42.6926 27.7607 42.6009 27.3537 42.6009 26.877V23.621H43.4699V26.811C43.4699 27.3463 43.6019 27.735 43.8659 27.977C44.1372 28.219 44.5002 28.34 44.9549 28.34C45.4682 28.34 45.8899 28.1713 46.2199 27.834C46.5499 27.4967 46.7149 26.9943 46.7149 26.327V23.621H47.5839V29H46.7369V28.087H46.5829C46.4656 28.3437 46.2639 28.5783 45.9779 28.791C45.6919 28.9963 45.2739 29.099 44.7239 29.099ZM52.3833 29.154C51.8259 29.154 51.3896 29.0477 51.0743 28.835C50.7663 28.6223 50.5426 28.3803 50.4033 28.109H50.2493V29H49.4023V21.3H50.2713V24.468H50.4253C50.5133 24.2993 50.6379 24.1417 50.7993 23.995C50.9606 23.841 51.1696 23.7163 51.4263 23.621C51.6903 23.5183 52.0093 23.467 52.3833 23.467C52.8526 23.467 53.2779 23.5807 53.6593 23.808C54.0479 24.028 54.3559 24.347 54.5833 24.765C54.8106 25.1757 54.9243 25.667 54.9243 26.239V26.382C54.9243 26.954 54.8069 27.449 54.5723 27.867C54.3449 28.285 54.0369 28.604 53.6483 28.824C53.2669 29.044 52.8453 29.154 52.3833 29.154ZM52.1523 28.384C52.7096 28.384 53.1606 28.208 53.5053 27.856C53.8573 27.4967 54.0333 26.998 54.0333 26.36V26.261C54.0333 25.623 53.8573 25.128 53.5053 24.776C53.1606 24.4167 52.7096 24.237 52.1523 24.237C51.6023 24.237 51.1476 24.4167 50.7883 24.776C50.4363 25.128 50.2603 25.623 50.2603 26.261V26.36C50.2603 26.998 50.4363 27.4967 50.7883 27.856C51.1476 28.208 51.6023 28.384 52.1523 28.384Z" fill="white"/>
<path d="M6.168 29.64C5.64 29.64 5.192 29.456 4.824 29.088C4.472 28.736 4.296 28.288 4.296 27.744V19.992C4.296 19.192 3.864 18.792 3 18.792H0.936V16.968H3C3.864 16.968 4.296 16.568 4.296 15.768V8.016C4.296 7.472 4.472 7.024 4.824 6.672C5.192 6.304 5.64 6.12 6.168 6.12H9.912V7.776H6.792C6.36 7.776 6.144 8.016 6.144 8.496V15.792C6.144 16.368 5.984 16.832 5.664 17.184C5.36 17.536 4.928 17.712 4.368 17.712H4.2V18.048H4.368C4.928 18.048 5.36 18.224 5.664 18.576C5.984 18.928 6.144 19.392 6.144 19.968V27.264C6.144 27.744 6.36 27.984 6.792 27.984H9.912V29.64H6.168Z" fill="#172554"/>
<path d="M16.9794 29.64V27.984H20.0994C20.5314 27.984 20.7474 27.744 20.7474 27.264V19.968C20.7474 19.392 20.8994 18.928 21.2034 18.576C21.5234 18.224 21.9634 18.048 22.5234 18.048H22.6914V17.712H22.5234C21.9634 17.712 21.5234 17.536 21.2034 17.184C20.8994 16.832 20.7474 16.368 20.7474 15.792V8.496C20.7474 8.016 20.5314 7.776 20.0994 7.776H16.9794V6.12H20.7234C21.2514 6.12 21.6914 6.304 22.0434 6.672C22.3954 7.024 22.5714 7.472 22.5714 8.016V15.768C22.5714 16.568 23.0034 16.968 23.8674 16.968H25.9554V18.792H23.8674C23.0034 18.792 22.5714 19.192 22.5714 19.992V27.744C22.5714 28.288 22.3954 28.736 22.0434 29.088C21.6914 29.456 21.2514 29.64 20.7234 29.64H16.9794Z" fill="#FDE047"/>
</svg>
