<svg width="206" height="61" viewBox="0 0 206 61" fill="none" xmlns="http://www.w3.org/2000/svg">
<path d="M12.912 58.52C11.632 58.52 10.592 58.104 9.792 57.272C8.992 56.472 8.592 55.448 8.592 54.2V39.032C8.592 37.752 7.936 37.112 6.624 37.112H1.776V32.408H6.624C7.936 32.408 8.592 31.768 8.592 30.488V15.32C8.592 14.072 8.992 13.048 9.792 12.248C10.592 11.416 11.632 11 12.912 11H20.736V15.224H14.64C13.776 15.224 13.344 15.704 13.344 16.664V30.536C13.344 31.656 13.008 32.584 12.336 33.32C11.696 34.024 10.816 34.376 9.696 34.376H9.168V35.144H9.696C10.816 35.144 11.696 35.512 12.336 36.248C13.008 36.952 13.344 37.864 13.344 38.984V52.856C13.344 53.816 13.776 54.296 14.64 54.296H20.736V58.52H12.912ZM34.6129 58.52V54.296H40.7089C41.5729 54.296 42.0049 53.816 42.0049 52.856V38.984C42.0049 37.864 42.3249 36.952 42.9649 36.248C43.6369 35.512 44.5329 35.144 45.6529 35.144H46.2289V34.376H45.6529C44.5329 34.376 43.6369 34.024 42.9649 33.32C42.3249 32.584 42.0049 31.656 42.0049 30.536V16.664C42.0049 15.704 41.5729 15.224 40.7089 15.224H34.6129V11H42.4369C43.7169 11 44.7569 11.416 45.5569 12.248C46.3889 13.048 46.8049 14.072 46.8049 15.32V30.488C46.8049 31.768 47.4449 32.408 48.7249 32.408H53.5729V37.112H48.7249C47.4449 37.112 46.8049 37.752 46.8049 39.032V54.2C46.8049 55.448 46.3889 56.472 45.5569 57.272C44.7569 58.104 43.7169 58.52 42.4369 58.52H34.6129Z" fill="white"/>
<path d="M73.32 29.28C72.32 29.28 71.4267 29.0667 70.64 28.64C69.8533 28.2 69.2333 27.56 68.78 26.72C68.3267 25.88 68.1 24.8533 68.1 23.64V20.36C68.1 18.5333 68.6 17.14 69.6 16.18C70.6 15.2067 71.9533 14.72 73.66 14.72C75.34 14.72 76.6333 15.18 77.54 16.1C78.4467 17.0067 78.9 18.2267 78.9 19.76V19.86H76.76V19.7C76.76 19.1267 76.6467 18.6133 76.42 18.16C76.1933 17.6933 75.8533 17.3267 75.4 17.06C74.9467 16.7933 74.3667 16.66 73.66 16.66C72.5933 16.66 71.76 16.9867 71.16 17.64C70.56 18.28 70.26 19.1733 70.26 20.32V23.68C70.26 24.8133 70.56 25.7133 71.16 26.38C71.76 27.0333 72.6 27.36 73.68 27.36C74.7467 27.36 75.5267 27.0667 76.02 26.48C76.5133 25.8933 76.76 25.1333 76.76 24.2V23.94H73V22.08H78.9V29H76.9V27.58H76.58C76.46 27.8333 76.28 28.0933 76.04 28.36C75.8133 28.6267 75.48 28.8467 75.04 29.02C74.6133 29.1933 74.04 29.28 73.32 29.28ZM85.5227 29.28C84.1227 29.28 83.0093 28.8933 82.1827 28.12C81.356 27.3333 80.9427 26.2267 80.9427 24.8V23.6H83.1027V24.8C83.1027 25.5467 83.3027 26.1467 83.7027 26.6C84.116 27.04 84.7093 27.26 85.4827 27.26C86.2293 27.26 86.7827 27.04 87.1427 26.6C87.5027 26.16 87.6827 25.56 87.6827 24.8V16.96H85.2427V15H91.4027V16.96H89.8427V24.8C89.8427 26.2533 89.4627 27.3667 88.7027 28.14C87.956 28.9 86.896 29.28 85.5227 29.28ZM98.9539 29.28C97.8472 29.28 96.8939 29.08 96.0939 28.68C95.3072 28.28 94.6939 27.7067 94.2539 26.96C93.8272 26.2 93.6139 25.28 93.6139 24.2V15H95.7939V24.26C95.7939 25.2467 96.0672 26.0067 96.6139 26.54C97.1606 27.0733 97.9406 27.34 98.9539 27.34C99.9672 27.34 100.747 27.0733 101.294 26.54C101.841 26.0067 102.114 25.2467 102.114 24.26V15H104.274V24.2C104.274 25.28 104.061 26.2 103.634 26.96C103.207 27.7067 102.594 28.28 101.794 28.68C100.994 29.08 100.047 29.28 98.9539 29.28ZM112.19 29V15H114.35V29H112.19ZM120.609 29V16.96H116.309V15H127.069V16.96H122.769V29H120.609ZM73.66 55.28C71.9533 55.28 70.6 54.8 69.6 53.84C68.6 52.8667 68.1 51.4667 68.1 49.64V46.36C68.1 44.5333 68.6 43.14 69.6 42.18C70.6 41.2067 71.9533 40.72 73.66 40.72C75.34 40.72 76.6333 41.1867 77.54 42.12C78.46 43.0533 78.92 44.3267 78.92 45.94V46.06H76.78V45.88C76.78 44.9333 76.52 44.16 76 43.56C75.4933 42.96 74.7133 42.66 73.66 42.66C72.5933 42.66 71.76 42.9867 71.16 43.64C70.56 44.28 70.26 45.1733 70.26 46.32V49.68C70.26 50.8133 70.56 51.7067 71.16 52.36C71.76 53.0133 72.5933 53.34 73.66 53.34C74.7133 53.34 75.4933 53.04 76 52.44C76.52 51.8267 76.78 51.0533 76.78 50.12V49.78H78.92V50.06C78.92 51.6733 78.46 52.9467 77.54 53.88C76.6333 54.8133 75.34 55.28 73.66 55.28ZM81.3716 55V41H83.4316V55H81.3716ZM90.2688 55.18C89.5221 55.18 88.8554 55.0133 88.2688 54.68C87.6821 54.3467 87.2221 53.8733 86.8888 53.26C86.5554 52.6467 86.3888 51.9133 86.3888 51.06V45.14H88.4488V50.92C88.4488 51.7733 88.6621 52.4067 89.0888 52.82C89.5154 53.22 90.1088 53.42 90.8688 53.42C91.7088 53.42 92.3821 53.14 92.8888 52.58C93.4088 52.0067 93.6688 51.1867 93.6688 50.12V45.14H95.7288V55H93.7088V53.52H93.3888C93.2021 53.92 92.8688 54.3 92.3888 54.66C91.9088 55.0067 91.2021 55.18 90.2688 55.18ZM104.474 55.28C103.514 55.28 102.774 55.1067 102.254 54.76C101.747 54.4133 101.367 54.0267 101.114 53.6H100.794V55H98.7739V41H100.834V46.48H101.154C101.314 46.2133 101.527 45.96 101.794 45.72C102.061 45.4667 102.414 45.26 102.854 45.1C103.294 44.94 103.834 44.86 104.474 44.86C105.301 44.86 106.061 45.06 106.754 45.46C107.447 45.86 108.001 46.44 108.414 47.2C108.827 47.96 109.034 48.8667 109.034 49.92V50.22C109.034 51.2867 108.821 52.2 108.394 52.96C107.981 53.7067 107.427 54.28 106.734 54.68C106.054 55.08 105.301 55.28 104.474 55.28ZM103.874 53.48C104.767 53.48 105.501 53.1933 106.074 52.62C106.661 52.0467 106.954 51.2267 106.954 50.16V49.98C106.954 48.9267 106.667 48.1133 106.094 47.54C105.521 46.9667 104.781 46.68 103.874 46.68C102.994 46.68 102.261 46.9667 101.674 47.54C101.101 48.1133 100.814 48.9267 100.814 49.98V50.16C100.814 51.2267 101.101 52.0467 101.674 52.62C102.261 53.1933 102.994 53.48 103.874 53.48Z" fill="white"/>
</svg>
